<svg width="1284" height="638" viewBox="0 0 1284 638" fill="none" xmlns="http://www.w3.org/2000/svg">
<mask id="mask0_8:4" style="mask-type:alpha" maskUnits="userSpaceOnUse" x="0" y="0" width="1284" height="638">
<rect width="1284" height="638" fill="#C4C4C4"/>
</mask>
<g mask="url(#mask0_8:4)">
<path d="M449.586 977.066C244.786 867.508 -24.6111 823.244 -64.6517 754.615C-104.692 685.986 84.7444 592.879 201.237 462.687C317.609 332.496 361.158 165.163 559.546 81.2709C758.056 -2.62146 1111.53 -3.18678 1418.54 51.1398C1725.68 105.41 1986.25 214.572 2089.31 343.915C2192.5 473.315 2138.19 622.954 2106.01 785.877C2073.83 948.857 2063.91 1125.18 1872.3 1235.81C1680.68 1346.44 1307.37 1391.5 1050.8 1326.54C794.225 1261.59 654.264 1086.62 449.586 977.066Z" fill="#121212" fill-opacity="0.03"/>
<path d="M560.407 1016.25C325.618 898.906 16.772 851.496 -29.1318 777.988C-75.0357 704.48 142.141 604.755 275.692 465.308C409.104 325.861 459.03 146.633 686.469 56.7772C914.047 -33.0789 1319.28 -33.6844 1671.25 24.5041C2023.37 82.6321 2322.09 199.554 2440.25 338.093C2558.54 476.692 2496.27 636.967 2459.38 811.472C2422.5 986.038 2411.12 1174.89 2191.45 1293.39C1971.78 1411.89 1543.8 1460.14 1249.66 1390.57C955.513 1321 795.057 1133.6 560.407 1016.25Z" fill="#121212" fill-opacity="0.03"/>
</g>
</svg>
