<svg width="960" height="968" viewBox="0 0 960 968" fill="none" xmlns="http://www.w3.org/2000/svg">
<mask id="mask0_5:86" style="mask-type:alpha" maskUnits="userSpaceOnUse" x="0" y="0" width="960" height="968">
<rect width="960" height="968" fill="#C4C4C4"/>
</mask>
<g mask="url(#mask0_5:86)">
<path d="M541.848 -540.124C717.665 -369.632 948.938 -300.75 983.312 -193.951C1017.69 -87.1518 855.058 57.7395 755.051 260.341C655.148 462.942 617.762 723.341 447.449 853.893C277.032 984.445 -26.4164 985.324 -289.986 900.782C-553.66 816.329 -777.352 646.453 -865.832 445.171C-954.416 243.802 -907.787 10.9379 -880.163 -242.6C-852.539 -496.225 -844.024 -770.612 -679.526 -942.775C-515.028 -1114.94 -194.549 -1185.05 25.7161 -1083.97C245.981 -982.891 366.135 -710.615 541.848 -540.124Z" fill="#121212" fill-opacity="0.03"/>
<path d="M624.835 -482.626C778.195 -323.451 979.927 -259.14 1009.91 -159.429C1039.89 -59.7185 898.039 75.5561 810.806 264.711C723.663 453.865 691.052 696.982 542.493 818.869C393.843 940.756 129.154 941.577 -100.75 862.646C-330.745 783.798 -525.865 625.197 -603.044 437.274C-680.313 249.27 -639.64 31.8609 -615.544 -204.849C-591.449 -441.642 -584.021 -697.818 -440.534 -858.554C-297.048 -1019.29 -17.5028 -1084.75 174.628 -990.38C366.758 -896.007 471.565 -641.802 624.835 -482.626Z" fill="#121212" fill-opacity="0.03"/>
</g>
</svg>
