<svg width="948" height="80" viewBox="0 0 948 80" fill="none" xmlns="http://www.w3.org/2000/svg">
<g clip-path="url(#clip0_10:10)">
<path d="M0 42.5234L22.6467 36.6828C45.2933 30.8423 90.5867 19.1613 135.669 20.2807C180.857 21.4488 225.729 35.3687 270.917 36.9262C316 38.4837 361.293 27.5814 406.376 20.6214C451.564 13.6615 496.436 10.5465 541.624 13.5641C586.707 16.5817 632 25.6345 677.083 32.6432C722.271 39.6031 767.143 44.4702 812.331 44.1295C857.413 43.8375 902.707 38.289 925.353 35.5634L948 32.7892V80H925.353C902.707 80 857.413 80 812.331 80C767.143 80 722.271 80 677.083 80C632 80 586.707 80 541.624 80C496.436 80 451.564 80 406.376 80C361.293 80 316 80 270.917 80C225.729 80 180.857 80 135.669 80C90.5867 80 45.2933 80 22.6467 80H0V42.5234Z" fill="black" fill-opacity="0.03"/>
<path d="M161 42.5234L186.991 36.6828C212.982 30.8423 264.964 19.1613 316.705 20.2807C368.566 21.4488 420.065 35.3687 471.926 36.9262C523.667 38.4837 575.649 27.5814 627.389 20.6214C679.251 13.6615 730.749 10.5465 782.611 13.5641C834.351 16.5817 886.333 25.6345 938.074 32.6432C989.935 39.6031 1041.43 44.4702 1093.3 44.1295C1145.04 43.8375 1197.02 38.289 1223.01 35.5634L1249 32.7892V80H1223.01C1197.02 80 1145.04 80 1093.3 80C1041.43 80 989.935 80 938.074 80C886.333 80 834.351 80 782.611 80C730.749 80 679.251 80 627.389 80C575.649 80 523.667 80 471.926 80C420.065 80 368.566 80 316.705 80C264.964 80 212.982 80 186.991 80H161V42.5234Z" fill="black" fill-opacity="0.03"/>
<path d="M-927 50.1718L-901.009 45.5232C-875.018 40.8746 -823.036 31.5775 -771.295 32.4684C-719.434 33.3981 -667.935 44.4773 -616.074 45.7169C-564.333 46.9565 -512.351 38.2792 -460.611 32.7396C-408.749 27.2 -357.251 24.7208 -305.389 27.1226C-253.649 29.5243 -201.667 36.7296 -149.926 42.3079C-98.0649 47.8475 -46.5662 51.7213 5.29513 51.4501C57.0356 51.2177 109.018 46.8015 135.009 44.6322L161 42.4241V80.0001H135.009C109.018 80.0001 57.0356 80.0001 5.29513 80.0001C-46.5662 80.0001 -98.0649 80.0001 -149.926 80.0001C-201.667 80.0001 -253.649 80.0001 -305.389 80.0001C-357.251 80.0001 -408.749 80.0001 -460.611 80.0001C-512.351 80.0001 -564.333 80.0001 -616.074 80.0001C-667.935 80.0001 -719.434 80.0001 -771.295 80.0001C-823.036 80.0001 -875.018 80.0001 -901.009 80.0001H-927V50.1718Z" fill="black" fill-opacity="0.03"/>
</g>
<defs>
<clipPath id="clip0_10:10">
<rect width="948" height="80" fill="white"/>
</clipPath>
</defs>
</svg>
